<svg xmlns="http://www.w3.org/2000/svg" width="277" height="42.33" viewBox="0 0 277 42.33">
  <g id="グループ_1502" data-name="グループ 1502" transform="translate(-275.921 -424.02)">
    <path id="パス_1" data-name="パス 1" d="M359.095,435.379,348.93,457.36h1.684l2.775-6.111h12.877l2.775,6.111h1.777l-10.165-21.981Zm-5.019,14.405,5.768-12.628,5.737,12.628Z" transform="translate(-6.05 -0.941)"/>
    <path id="パス_2" data-name="パス 2" d="M399.886,441.817v-.063a5.752,5.752,0,0,0-1.653-4.053,8.592,8.592,0,0,0-6.142-2.152h-9.167v21.825h1.621v-9.041h7.142l6.953,9.041H400.7l-7.2-9.323C397.174,447.552,399.886,445.464,399.886,441.817Zm-15.341,5.05v-9.822H392c3.96,0,6.267,1.84,6.267,4.772v.061c0,3.148-2.713,4.988-6.36,4.988Z" transform="translate(-8.867 -0.955)"/>
    <path id="パス_3" data-name="パス 3" d="M429.564,441.817v-.063a5.753,5.753,0,0,0-1.653-4.053,8.594,8.594,0,0,0-6.142-2.152H412.6v21.825h1.621v-9.041h7.141l6.953,9.041h2.057l-7.2-9.323C426.852,447.552,429.564,445.464,429.564,441.817Zm-15.341,5.05v-9.822h7.453c3.959,0,6.267,1.84,6.267,4.772v.061c0,3.148-2.713,4.988-6.36,4.988Z" transform="translate(-11.327 -0.955)"/>
    <path id="パス_4" data-name="パス 4" d="M450.028,447.272l-8.169-11.724h-2.027l9.354,13.189v8.637h1.621v-8.668l9.354-13.158h-1.933Z" transform="translate(-13.583 -0.955)"/>
    <path id="パス_5" data-name="パス 5" d="M494.356,445.623c-5.175-1.06-6.36-2.463-6.36-4.771v-.061c0-2.277,2.119-4.116,5.331-4.116a9.391,9.391,0,0,1,6.517,2.463l1.029-1.279a10.884,10.884,0,0,0-7.483-2.65c-4.054,0-7.016,2.494-7.016,5.737v.061c0,3.305,2.12,5.083,7.359,6.143,4.957,1,6.173,2.338,6.173,4.646v.061c0,2.495-2.245,4.334-5.519,4.334a10.6,10.6,0,0,1-7.826-3.243l-1.06,1.216a12.424,12.424,0,0,0,8.793,3.491c4.21,0,7.234-2.431,7.234-5.955v-.061C501.528,448.461,499.408,446.652,494.356,445.623Z" transform="translate(-17.368 -0.927)"/>
    <path id="パス_6" data-name="パス 6" d="M529.788,448.3c0,5.269-2.838,7.951-7.264,7.951-4.614,0-7.389-2.962-7.389-8.107v-12.6h-1.622V448.3c0,6.111,3.711,9.415,8.948,9.415,5.3,0,8.948-3.336,8.948-9.6V435.549h-1.622Z" transform="translate(-19.689 -0.955)"/>
    <path id="パス_7" data-name="パス 7" d="M561.409,454.537,546.35,435.549h-1.528v21.826h1.559V437.981l15.371,19.393h1.216V435.549h-1.559Z" transform="translate(-22.284 -0.955)"/>
    <path id="パス_8" data-name="パス 8" d="M469.847,453.663h-.471v5.3h.471v-2.394h6.4v-.51h-6.4Z" transform="translate(-16.032 -2.456)"/>
    <path id="パス_9" data-name="パス 9" d="M469.376,444.971h3.179v4.395h-3.179v.51h6.867v-.51h-3.217v-4.395h3.217v-.51h-6.867Z" transform="translate(-16.032 -1.694)"/>
    <path id="パス_10" data-name="パス 10" d="M475.772,439.672h-2.756v-3.935h-.471v3.935h-2.7V435.3h-.471v4.886h6.867v-4.934h-.471Z" transform="translate(-16.032 -0.93)"/>
    <path id="パス_11" data-name="パス 11" d="M308.27,426.768c6.139,0,10.232,2.573,13.8,6.023l2.164-2.222c-4.21-3.858-8.594-6.548-15.9-6.548-11.626,0-20.186,9.293-20.451,20.626H275.921v1.077h11.954c.2,11.552,8.783,20.627,20.336,20.627,7.25,0,11.928-2.864,16.255-7.132l-2.047-1.987c-4.151,4.092-8.186,6.372-14.091,6.372-9.593,0-17.024-7.793-17.282-17.879h47.57v-1.077H291.041C291.244,434.562,298.583,426.768,308.27,426.768Z" transform="translate(0 0)"/>
    <path id="パス_12" data-name="パス 12" d="M573.44,433.023a3.82,3.82,0,1,0,3.82,3.82A3.824,3.824,0,0,0,573.44,433.023Zm0,7.121a3.3,3.3,0,1,1,3.3-3.3A3.3,3.3,0,0,1,573.44,440.144Z" transform="translate(-24.339 -0.746)"/>
    <path id="パス_13" data-name="パス 13" d="M574.531,436.87a1.061,1.061,0,0,0,0-1.653,1.157,1.157,0,0,0-.781-.235h-1.405V439h.573v-1.893h.46L574.806,439h.694l-1.44-1.917A.959.959,0,0,0,574.531,436.87Zm-1.612-.31v-1.033h.8a.623.623,0,0,1,.481.15.526.526,0,0,1,0,.735.623.623,0,0,1-.481.149Z" transform="translate(-24.565 -0.908)"/>
  </g>
</svg>
