<svg xmlns="http://www.w3.org/2000/svg" width="23.039" height="23.039"><g data-name="グループ 1501" fill="#585858"><path data-name="パス 807" d="M11.52 2.076c3.075 0 3.441.011 4.654.067a6.341 6.341 0 012.14.4 3.814 3.814 0 012.187 2.187 6.38 6.38 0 01.4 2.14c.055 1.213.067 1.579.067 4.654s-.012 3.441-.067 4.654a6.4 6.4 0 01-.4 2.141 3.817 3.817 0 01-2.187 2.185 6.341 6.341 0 01-2.14.4c-1.213.056-1.578.068-4.654.068s-3.441-.012-4.654-.068a6.341 6.341 0 01-2.14-.4 3.817 3.817 0 01-2.187-2.185 6.4 6.4 0 01-.4-2.141c-.055-1.213-.067-1.579-.067-4.654s.012-3.441.067-4.654a6.38 6.38 0 01.4-2.14 3.814 3.814 0 012.187-2.187 6.341 6.341 0 012.14-.4c1.213-.056 1.578-.067 4.654-.067m0-2.076C8.39 0 7.999.014 6.77.07a8.444 8.444 0 00-2.8.535A5.888 5.888 0 00.6 3.975a8.475 8.475 0 00-.536 2.8c-.056 1.23-.068 1.62-.068 4.75s.012 3.52.068 4.75a8.5 8.5 0 00.536 2.8 5.895 5.895 0 003.37 3.367 8.43 8.43 0 002.8.538c1.229.055 1.62.068 4.75.068s3.52-.014 4.748-.068a8.432 8.432 0 002.8-.538 5.895 5.895 0 003.37-3.367 8.541 8.541 0 00.536-2.8c.055-1.23.068-1.622.068-4.75s-.014-3.52-.068-4.75a8.514 8.514 0 00-.536-2.8 5.888 5.888 0 00-3.37-3.37 8.445 8.445 0 00-2.8-.535C15.039.014 14.648 0 11.52 0"/><path data-name="パス 808" d="M11.519 5.603a5.915 5.915 0 105.916 5.916 5.917 5.917 0 00-5.916-5.916m0 9.755a3.84 3.84 0 113.84-3.839 3.84 3.84 0 01-3.84 3.839"/><path data-name="パス 809" d="M19.051 5.37a1.383 1.383 0 11-1.383-1.382 1.384 1.384 0 011.383 1.382"/></g></svg>