<svg data-name="Icon - Twitter" xmlns="http://www.w3.org/2000/svg" width="25.926" height="21.234"><path data-name="パス 779" d="M12.99 6.419a5.25 5.25 0 013.4-6.1c2.66-1.205 5.373 1.374 5.373 1.374L25.004.399c0 1.389-2.315 2.778-2.315 2.778a11.3 11.3 0 003.241-.463c0 .463-2.778 2.778-2.778 2.778 0 11.111-8.334 15.741-15.278 15.741s-7.87-2.778-7.87-2.778c5.556 0 7.408-2.315 7.408-2.315-1.389.926-4.63-3.241-4.63-3.241a5.306 5.306 0 002.778 0C2.782 12.436.93 7.343.93 7.343c.463.926 2.778.926 2.778.926C.008 4.569 1.856.862 1.856.862 4.629 5.493 12.99 6.419 12.99 6.419z" fill="#585858"/></svg>