<svg xmlns="http://www.w3.org/2000/svg" width="283.5" height="66"><path d="M87 52.3c-1.1.6-2.3.9-4.2.9-3 0-4.9-1.6-4.9-5.4-3.3 3.8-7.5 5.4-12.4 5.4-6.4 0-11.7-2.8-11.7-9.9 0-8 5.9-9.7 12-10.9 6.4-1.3 11.9-.8 11.9-5.2 0-5.1-4.2-5.9-7.9-5.9-4.9 0-8.6 1.5-8.8 6.7h-5.8c.3-8.8 7.1-11.8 14.9-11.8 6.4 0 13.2 1.4 13.2 9.7v18.2c0 2.7 0 4 1.9 4 .4 0 1-.1 1.8-.3v4.5zm-9.4-18.1c-2.2 1.6-6.6 1.7-10.5 2.4-3.8.7-7.1 2.1-7.1 6.4 0 3.8 3.3 5.2 6.8 5.2 7.7 0 10.8-4.8 10.8-8v-6zM92 17.1h5.5v5.6h.1c2.5-4.4 6.4-6.4 11.5-6.4 9.3 0 12.2 5.3 12.2 12.9v23.3h-5.8v-24c0-4.3-2.8-7.1-7.2-7.1-7 0-10.4 4.8-10.4 11.1v20H92V17.1zm67.6 35.4h-5.8v-4.8h-.1c-1.9 3.9-6.4 5.6-11.3 5.6-10.8 0-16.3-8.6-16.2-18.6 0-10 5.3-18.4 16.1-18.4 3.6 0 8.8 1.4 11.4 5.6h.1V3.5h5.8v49zm-16.5-4.3c7.8 0 10.8-6.7 10.8-13.3 0-7-3.1-13.4-11.1-13.4-7.9 0-10.6 6.8-10.6 13.7.1 6.5 3.5 13 10.9 13zM165 17.1h5.8V22h.1c1.9-3.9 6.4-5.7 11.3-5.7 10.9 0 16.3 8.6 16.3 18.6 0 10-5.3 18.4-16.1 18.4-3.7 0-8.8-1.3-11.4-5.5h-.1v18.3h-5.8l-.1-49zm16.3 4.3c-7.8 0-10.8 6.7-10.8 13.3 0 7 3.1 13.4 11.1 13.5 7.9 0 10.6-6.8 10.6-13.7.1-6.7-3.3-13.1-10.9-13.1zm38.3-5.1c11.2 0 17.1 8.2 17.1 18.6 0 10.3-5.9 18.5-17.1 18.5-11.2 0-17.1-8.1-17.1-18.5 0-10.5 6-18.6 17.1-18.6zm0 31.9c6.1 0 11-4.8 11-13.4 0-8.6-4.9-13.4-11-13.4s-11 4.8-11 13.4c.1 8.6 5 13.4 11 13.4zm21.6-31.1h5.5v7.5h.1c2.8-5.7 6.7-7.6 13-7.5v5.2c-7.8 0-12.8 7.1-12.8 14.5v15.8h-5.8V17.1zm35.2 0h7v5.1h-7v21.9c0 2.7.8 3.1 4.4 3.2h2.7v5.2H279c-6 0-8.4-1.3-8.4-7.8V22.3h-6v-5.2h6V6.5h5.8v10.6zM42.6 0H5.5C2.5 0 0 2.5 0 5.5v50.4c0 3 2.5 5.5 5.5 5.5h37.1c3 0 5.5-2.5 5.5-5.5V5.5C48 2.5 45.6 0 42.6 0zm-3.4 52.5H9V8.8h5.6V47h24.5v5.5z"/></svg>