<svg xmlns="http://www.w3.org/2000/svg" width="261.991" height="40.036"><path data-name="パス 1" d="M72.945 9.853l-9.614 20.79h1.593l2.625-5.78h12.179l2.625 5.78h1.681L74.42 9.853zm-4.744 13.621l5.455-11.944 5.422 11.944z"/><path data-name="パス 2" d="M108.861 15.929v-.06a5.441 5.441 0 00-1.563-3.833 8.127 8.127 0 00-5.809-2.035h-8.67v20.642h1.533v-8.551h6.755l6.576 8.551h1.946l-6.812-8.817c3.477-.474 6.044-2.447 6.044-5.897zm-14.51 4.776v-9.289h7.049c3.746 0 5.927 1.74 5.927 4.513v.058c0 2.978-2.566 4.718-6.016 4.718z"/><path data-name="パス 3" d="M134.605 15.929v-.06a5.441 5.441 0 00-1.563-3.833 8.128 8.128 0 00-5.809-2.035h-8.673v20.642h1.533v-8.551h6.754l6.576 8.551h1.946l-6.811-8.817c3.482-.474 6.047-2.447 6.047-5.897zm-14.51 4.776v-9.289h7.049c3.745 0 5.927 1.74 5.927 4.513v.058c0 2.978-2.566 4.718-6.016 4.718z"/><path data-name="パス 4" d="M151.826 21.089L144.1 10h-1.917l8.847 12.474v8.169h1.533v-8.2l8.847-12.445h-1.828z"/><path data-name="パス 5" d="M190.172 19.556c-4.895-1-6.016-2.329-6.016-4.512v-.058c0-2.154 2-3.893 5.042-3.893a8.882 8.882 0 016.164 2.33l.973-1.21a10.294 10.294 0 00-7.077-2.506c-3.834 0-6.636 2.359-6.636 5.427v.058c0 3.126 2.006 4.807 6.96 5.81 4.689.944 5.839 2.211 5.839 4.394v.058c0 2.359-2.123 4.1-5.22 4.1a10.023 10.023 0 01-7.4-3.067l-1 1.15a11.75 11.75 0 008.316 3.3c3.982 0 6.842-2.3 6.842-5.632v-.058c-.004-3.007-2.009-4.718-6.787-5.691z"/><path data-name="パス 6" d="M221.489 22.063c0 4.983-2.684 7.52-6.871 7.52-4.364 0-6.989-2.8-6.989-7.667V10.001h-1.534v12.062c0 5.78 3.51 8.905 8.464 8.905 5.014 0 8.464-3.155 8.464-9.082V10.001h-1.534z"/><path data-name="パス 7" d="M248.943 27.96L234.7 10.001h-1.445v20.643h1.477V12.301l14.538 18.342h1.15V10.001h-1.475z"/><path data-name="パス 8" d="M168.256 25.713h-.446v5.011h.446V28.46h6.049v-.482h-6.049z"/><path data-name="パス 9" d="M167.81 18.213h3.006v4.157h-3.006v.482h6.495v-.482h-3.043v-4.157h3.043v-.483h-6.495z"/><path data-name="パス 10" d="M173.859 13.924h-2.607v-3.721h-.446v3.721h-2.551V9.785h-.446v4.621h6.495V9.739h-.446z"/><path data-name="パス 11" d="M30.596 2.599c5.807 0 9.678 2.433 13.051 5.7l2.046-2.1C41.711 2.55 37.564.005 30.652.005c-11 0-19.092 8.79-19.343 19.509H0v1.018h11.306c.193 10.926 8.307 19.509 19.234 19.509 6.857 0 11.282-2.709 15.374-6.746l-1.936-1.88c-3.926 3.871-7.743 6.027-13.327 6.027-9.073 0-16.1-7.371-16.346-16.911h44.992v-1.018h-45c.195-9.542 7.137-16.914 16.299-16.914z"/><path data-name="パス 12" d="M258.378 7.81a3.613 3.613 0 103.613 3.613 3.617 3.617 0 00-3.613-3.613zm0 6.735a3.121 3.121 0 113.122-3.122 3.125 3.125 0 01-3.122 3.122z"/><path data-name="パス 13" d="M259.196 11.294a1 1 0 000-1.563 1.1 1.1 0 00-.738-.222h-1.329v3.8h.542v-1.79h.435l1.351 1.79h.657l-1.362-1.813a.907.907 0 00.444-.202zm-1.525-.293v-.974h.76a.589.589 0 01.455.141.5.5 0 010 .695.589.589 0 01-.455.141z"/></svg>